<svg aria-hidden="true" style="position: absolute; width: 0; height: 0; overflow: hidden;" version="1.1" xmlns="http://www.w3.org/2000/svg" xmlns:xlink="http://www.w3.org/1999/xlink">
<defs>
<symbol id="icon-inverted-commas" viewBox="0 0 28 28">
<path fill="#f6f6f6" style="fill: var(--color1, #f6f6f6)" d="M7.176 15.285c1.353-0.536 2.437-0.396 3.254 0.421s1.059 2.118 0.727 3.905c-0.255 1.327-0.817 2.348-1.684 3.063-0.842 0.689-1.825 1.034-2.948 1.034-1.531 0-2.59-0.587-3.177-1.761-0.587-1.199-0.702-2.807-0.345-4.823 0.204-1.097 0.536-2.208 0.995-3.33s1.072-2.271 1.837-3.445c0.766-1.174 1.761-2.195 2.986-3.063s2.578-1.429 4.058-1.684l-0.383 4.058c-1.25 0.255-2.361 0.906-3.33 1.952-0.97 1.021-1.633 2.246-1.991 3.675zM18.699 15.285c1.353-0.536 2.437-0.396 3.254 0.421s1.059 2.118 0.727 3.905c-0.255 1.327-0.817 2.348-1.684 3.063-0.842 0.689-1.825 1.034-2.948 1.034-1.531 0-2.59-0.587-3.177-1.761-0.587-1.199-0.702-2.807-0.345-4.823 0.204-1.097 0.536-2.208 0.995-3.33s1.072-2.271 1.838-3.445 1.761-2.195 2.986-3.063c1.225-0.868 2.578-1.429 4.058-1.684l-0.383 4.058c-1.25 0.255-2.361 0.906-3.33 1.952-0.97 1.021-1.633 2.246-1.991 3.675z"></path>
</symbol>
<symbol id="icon-fluent_food-24-filled" viewBox="0 0 28 28">
<path d="M6.44 8h-1.68c-0.466 0-0.84 0.401-0.84 0.9v3.9h-0.84c-0.154 0-0.28 0.135-0.28 0.3v1.8c0 0.165 0.126 0.3 0.28 0.3h0.84v3.9c0 0.499 0.374 0.9 0.84 0.9h1.68c0.465 0 0.84-0.401 0.84-0.9v-10.2c0-0.499-0.375-0.9-0.84-0.9zM24.92 12.8h-0.84v-3.9c0-0.499-0.374-0.9-0.84-0.9h-1.68c-0.466 0-0.84 0.401-0.84 0.9v10.2c0 0.499 0.375 0.9 0.84 0.9h1.68c0.465 0 0.84-0.401 0.84-0.9v-3.9h0.84c0.154 0 0.28-0.135 0.28-0.3v-1.8c0-0.165-0.126-0.3-0.28-0.3zM18.76 5.6h-1.68c-0.465 0-0.84 0.401-0.84 0.9v6.3h-4.48v-6.3c0-0.499-0.375-0.9-0.84-0.9h-1.68c-0.466 0-0.84 0.401-0.84 0.9v15c0 0.499 0.374 0.9 0.84 0.9h1.68c0.466 0 0.84-0.401 0.84-0.9v-6.3h4.48v6.3c0 0.499 0.375 0.9 0.84 0.9h1.68c0.465 0 0.84-0.401 0.84-0.9v-15c0-0.499-0.375-0.9-0.84-0.9z"></path>
</symbol>

<symbol id="icon-arrow" viewBox="0 0 28 28">
<path stroke-linejoin="round" stroke-linecap="round" stroke-miterlimit="4" stroke-width="2.275" d="M13.125 24.5l11.375-11.375M24.5 13.125l-11.375-11.375M24.5 13.125h-22.75"></path>
</symbol>

<symbol id="icon-trash" viewBox="0 0 28 28">
<path stroke-linejoin="round" stroke-linecap="round" stroke-miterlimit="4" stroke-width="2.275" d="M18.667 7v-0.933c0-1.307 0-1.96-0.254-2.459-0.224-0.439-0.581-0.796-1.020-1.020-0.499-0.254-1.153-0.254-2.459-0.254h-1.867c-1.307 0-1.96 0-2.459 0.254-0.439 0.224-0.796 0.581-1.020 1.020-0.254 0.499-0.254 1.153-0.254 2.459v0.933M11.667 13.417v5.833M16.333 13.417v5.833M3.5 7h21M22.167 7v13.067c0 1.96 0 2.94-0.381 3.689-0.336 0.659-0.871 1.194-1.53 1.53-0.749 0.382-1.729 0.382-3.689 0.382h-5.133c-1.96 0-2.94 0-3.689-0.382-0.659-0.336-1.194-0.871-1.53-1.53-0.381-0.749-0.381-1.729-0.381-3.689v-13.067"></path>
</symbol>

<symbol id="icon-icon" viewBox="0 0 28 28">
<path fill="#7e847f" style="fill: var(--color2, #7e847f)" d="M28 14c0 7.732-6.268 14-14 14s-14-6.268-14-14c0-7.732 6.268-14 14-14s14 6.268 14 14z"></path>
<path fill="#f6f6f6" style="fill: var(--color1, #f6f6f6)" d="M21.961 10.18c-0.245-0.292-0.68-0.331-0.972-0.087l-1.914 1.608-0.88-2.181c-0.031-0.082-0.079-0.151-0.133-0.211-0.18-0.4-0.492-0.744-0.923-0.943-0.187-0.085-0.38-0.13-0.573-0.153-0.042-0.022-0.081-0.052-0.129-0.067l-3.369-0.939c-0.189-0.052-0.379-0.018-0.535 0.073-0.185 0.063-0.344 0.197-0.42 0.392l-1.269 3.262c-0.137 0.355 0.038 0.755 0.394 0.895 0.354 0.137 0.755-0.039 0.894-0.395l1.071-2.754 1.534 0.427c-0.037 0.061-0.078 0.117-0.108 0.182l-1.967 4.264c-0.028 0.063-0.043 0.126-0.064 0.191l-2.391 4.008-4.001 1.338c-0.453 0.339-0.549 0.976-0.214 1.429 0.337 0.454 0.976 0.55 1.428 0.215l4.094-1.41c0.125-0.091 0.216-0.21 0.285-0.339 0.052-0.055 0.11-0.098 0.15-0.166l1.425-2.39 2.53 2.156-2.707 3.051c-0.373 0.421-0.336 1.068 0.087 1.44 0.421 0.375 1.067 0.336 1.442-0.087l3.378-3.806c0.105-0.117 0.168-0.253 0.21-0.394 0.025-0.077 0.025-0.157 0.031-0.236 0-0.040 0.015-0.077 0.012-0.114-0.009-0.279-0.122-0.55-0.351-0.743l-2.328-1.985c0.168-0.16 0.31-0.35 0.413-0.573l1.508-3.266 0.483 1.287c0.020 0.114 0.059 0.226 0.14 0.32 0.073 0.087 0.166 0.145 0.265 0.185 0.010 0.005 0.022 0.006 0.034 0.009 0.063 0.022 0.126 0.044 0.192 0.047 0.078 0.007 0.157-0.003 0.236-0.025 0.002-0.001 0.003-0.001 0.003-0.001 0.021-0.005 0.042-0.001 0.064-0.010 0.112-0.042 0.198-0.114 0.272-0.198l2.747-2.332c0.292-0.246 0.169-0.68-0.077-0.972z"></path>
<path fill="#f6f6f6" style="fill: var(--color1, #f6f6f6)" d="M18.485 8.518c1.064 0 1.926-0.862 1.926-1.926s-0.862-1.926-1.926-1.926c-1.063 0-1.926 0.862-1.926 1.926s0.862 1.926 1.926 1.926z"></path>
</symbol>

<symbol id="icon-star" viewBox="0 0 28 28">
<path fill="#eea10c" style="fill: var(--color3, #eea10c)" d="M12.098 2.854c0.599-1.843 3.206-1.843 3.804 0l1.69 5.202c0.268 0.824 1.036 1.382 1.902 1.382h5.469c1.937 0 2.743 2.479 1.176 3.618l-4.425 3.215c-0.701 0.509-0.994 1.412-0.726 2.236l1.69 5.202c0.599 1.843-1.51 3.375-3.078 2.236l-4.425-3.215c-0.701-0.509-1.65-0.509-2.351 0l-4.425 3.215c-1.567 1.139-3.676-0.393-3.078-2.236l1.69-5.202c0.268-0.824-0.026-1.727-0.727-2.236l-4.425-3.215c-1.567-1.139-0.762-3.618 1.176-3.618h5.469c0.866 0 1.634-0.558 1.902-1.382l1.69-5.202z"></path>
</symbol>

<symbol id="icon-heart" viewBox="0 0 28 28">
<path fill="none" stroke="#f6f6f6" style="stroke: var(--color1, #f6f6f6)" stroke-linejoin="round" stroke-linecap="round" stroke-miterlimit="4" stroke-width="2.1" d="M24.314 5.378c-0.596-0.596-1.303-1.069-2.082-1.392s-1.613-0.489-2.456-0.489c-0.843 0-1.677 0.166-2.456 0.489s-1.486 0.796-2.082 1.392l-1.237 1.237-1.237-1.237c-1.204-1.204-2.836-1.88-4.538-1.88s-3.335 0.676-4.538 1.88c-1.204 1.204-1.88 2.836-1.88 4.538s0.676 3.335 1.88 4.538l10.313 10.313 10.313-10.313c0.596-0.596 1.069-1.303 1.392-2.082s0.489-1.613 0.489-2.456c0-0.843-0.166-1.678-0.489-2.456s-0.796-1.486-1.392-2.082z"></path>
</symbol>

<symbol id="icon-x" viewBox="0 0 28 28">
<path stroke-linejoin="round" stroke-linecap="round" stroke-miterlimit="4" stroke-width="2" d="M19.833 8.167l-11.667 11.667M8.167 8.167l11.667 11.667"></path>
</symbol>

<symbol id="icon-copyright" viewBox="0 0 24 28">
<path d="M17.969 16.781v1.703c0 2.203-3.516 3.016-5.719 3.016-4.281 0-7.5-3.266-7.5-7.578 0-4.234 3.187-7.422 7.422-7.422 1.547 0 5.594 0.547 5.594 3.031v1.703c0 0.141-0.109 0.25-0.25 0.25h-1.844c-0.141 0-0.25-0.109-0.25-0.25v-1.094c0-0.984-1.891-1.437-3.172-1.437-2.922 0-4.953 2.109-4.953 5.141 0 3.141 2.125 5.437 5.078 5.437 1.125 0 3.25-0.422 3.25-1.406v-1.094c0-0.141 0.109-0.25 0.234-0.25h1.859c0.125 0 0.25 0.109 0.25 0.25zM12 4c-5.516 0-10 4.484-10 10s4.484 10 10 10 10-4.484 10-10-4.484-10-10-10zM24 14c0 6.625-5.375 12-12 12s-12-5.375-12-12 5.375-12 12-12v0c6.625 0 12 5.375 12 12z"></path>
</symbol>

<symbol id="icon-navigation-more" viewBox="0 0 20 20">
<path d="M4 12c-1.105 0-2-0.895-2-2s0.895-2 2-2v0c1.105 0 2 0.895 2 2s-0.895 2-2 2v0zM10 12c-1.105 0-2-0.895-2-2s0.895-2 2-2v0c1.105 0 2 0.895 2 2s-0.895 2-2 2v0zM16 12c-1.105 0-2-0.895-2-2s0.895-2 2-2v0c1.105 0 2 0.895 2 2s-0.895 2-2 2v0z"></path>
</symbol>

<symbol id="icon-close" viewBox="0 0 32 32">
<path stroke-linejoin="round" stroke-linecap="round" stroke-miterlimit="4" stroke-width="2.2857" d="M24 8l-16 16"></path>
<path stroke-linejoin="round" stroke-linecap="round" stroke-miterlimit="4" stroke-width="2.2857" d="M8 8l16 16"></path>
</symbol>

<symbol id="icon-twitter" viewBox="0 0 32 32">
<path d="M29.333 7.898c-0.992 0.435-2.048 0.723-3.15 0.863 1.133-0.677 1.998-1.74 2.405-3.022-1.057 0.63-2.223 1.075-3.467 1.323-1.003-1.068-2.433-1.73-3.993-1.73-3.027 0-5.463 2.457-5.463 5.468 0 0.433 0.037 0.85 0.127 1.247-4.545-0.222-8.567-2.4-11.268-5.718-0.472 0.818-0.748 1.755-0.748 2.763 0 1.893 0.975 3.572 2.428 4.543-0.878-0.017-1.74-0.272-2.47-0.673 0 0.017 0 0.038 0 0.060 0 2.657 1.895 4.863 4.38 5.372-0.445 0.122-0.93 0.18-1.433 0.18-0.35 0-0.703-0.020-1.035-0.093 0.708 2.165 2.718 3.757 5.108 3.808-1.86 1.455-4.222 2.332-6.778 2.332-0.448 0-0.878-0.020-1.308-0.075 2.422 1.562 5.292 2.453 8.387 2.453 10.060 0 15.56-8.333 15.56-15.557 0-0.242-0.008-0.475-0.020-0.707 1.085-0.77 1.997-1.732 2.74-2.838z"></path>
</symbol>

<symbol id="youtube" viewBox="0 0 32 32">
<path d="M24.24 6c-1.36-.08-4.16-.16-8.4-.16h-.56c-4.08 0-6.8.08-8.16.24-1.84.16-3.12.64-3.84 1.28-.64.56-1.12 1.6-1.28 2.96-.08.88-.16 2.72-.16 5.52v.4c0 2.64.08 4.48.24 5.36.24 1.28.64 2.24 1.44 2.8.8.64 2.16 1.04 4.08 1.2 1.36.08 4.16.16 8.4.16h.56c4.08 0 6.8-.08 8.16-.24 1.84-.16 3.12-.64 3.84-1.28.64-.56 1.12-1.6 1.28-2.96.08-.88.16-2.72.16-5.52v-.4c0-2.64-.08-4.48-.24-5.36-.24-1.28-.64-2.24-1.44-2.8-.8-.64-2.16-1.04-4.08-1.2zm-3.12 9.84-8.8 5.28V10.56l8.8 5.28z" />
</symbol>

<symbol id="facebook" viewBox="0 0 32 32">
<path  d="M19.52 4.64h.96v3.6h-1.2c-.48 0-.96 0-1.2.24s-.24.48-.24 1.04v1.28h2.64v3.04h-2.64v13.2h-4.08V13.76H11.6v-3.04h2.16V9.68c0-1.76.24-3.04.72-3.6.72-1.04 2.16-1.52 4.32-1.52.24.08.48.08.72.08z" />
</symbol>

<symbol id="instagram" viewBox="0 0 32 32">
<path d="M28.718 10.756a9.264 9.264 0 0 0-.596-3.145 6.547 6.547 0 0 0-3.743-3.737 9.42 9.42 0 0 0-3.108-.596c-1.368-.061-1.801-.078-5.273-.078s-3.916 0-5.274.078a9.418 9.418 0 0 0-3.106.596 6.541 6.541 0 0 0-3.743 3.737 9.288 9.288 0 0 0-.596 3.101c-.061 1.367-.08 1.8-.08 5.265s0 3.908.08 5.265a9.335 9.335 0 0 0 .596 3.104 6.548 6.548 0 0 0 3.744 3.735 9.37 9.37 0 0 0 3.106.639c1.369.061 1.803.079 5.274.079s3.917 0 5.274-.079a9.357 9.357 0 0 0 3.108-.595 6.555 6.555 0 0 0 3.743-3.737 9.346 9.346 0 0 0 .596-3.104c.061-1.365.08-1.798.08-5.265-.003-3.466-.003-3.906-.082-5.264zM15.99 22.531c-3.631 0-6.572-2.936-6.572-6.561s2.941-6.561 6.572-6.561c3.628 0 6.572 2.936 6.572 6.561s-2.944 6.561-6.572 6.561zm6.834-11.835a1.53 1.53 0 1 1 0-3.06 1.53 1.53 0 1 1 0 3.06z" /><path d="M15.992 19.976a4.004 4.004 0 1 0 0-8.009 4.004 4.004 0 0 0 0 8.009z" />
</symbol>

</defs>
</svg>
