<!-- Generated by IcoMoon.io -->
<svg version="1.1" xmlns="http://www.w3.org/2000/svg" width="32" height="32" viewBox="0 0 32 32">
<title>bi_check2-circle</title>
<path fill="#fafafb" d="M5 16c-0-1.931 0.508-3.828 1.473-5.501s2.354-3.061 4.026-4.027c1.672-0.966 3.569-1.474 5.5-1.474s3.828 0.508 5.5 1.474c0.23 0.13 0.501 0.165 0.756 0.096s0.472-0.236 0.604-0.465c0.132-0.229 0.168-0.5 0.101-0.756s-0.233-0.474-0.461-0.607c-2.478-1.431-5.359-2.004-8.197-1.63s-5.472 1.673-7.495 3.696-3.323 4.658-3.697 7.495c-0.374 2.837 0.199 5.718 1.63 8.197s3.639 4.415 6.283 5.511c2.644 1.095 5.575 1.288 8.339 0.547s5.207-2.372 6.949-4.642c1.742-2.27 2.687-5.052 2.687-7.913 0-0.265-0.105-0.52-0.293-0.707s-0.442-0.293-0.707-0.293c-0.265 0-0.52 0.105-0.707 0.293s-0.293 0.442-0.293 0.707c0 2.917-1.159 5.715-3.222 7.778s-4.861 3.222-7.778 3.222c-2.917 0-5.715-1.159-7.778-3.222s-3.222-4.861-3.222-7.778z"></path>
<path fill="#fafafb" d="M30.708 6.708c0.093-0.093 0.167-0.203 0.217-0.325s0.076-0.252 0.076-0.383-0.026-0.262-0.076-0.383c-0.050-0.122-0.124-0.232-0.217-0.325s-0.203-0.167-0.325-0.217c-0.121-0.050-0.252-0.076-0.383-0.076s-0.262 0.026-0.383 0.076-0.232 0.124-0.325 0.217l-13.292 13.294-5.292-5.294c-0.093-0.093-0.203-0.167-0.325-0.217s-0.252-0.076-0.383-0.076c-0.132 0-0.262 0.026-0.383 0.076s-0.232 0.124-0.325 0.217c-0.093 0.093-0.167 0.203-0.217 0.325s-0.076 0.252-0.076 0.383c0 0.132 0.026 0.262 0.076 0.383s0.124 0.232 0.217 0.325l6 6c0.093 0.093 0.203 0.167 0.325 0.217s0.252 0.076 0.383 0.076c0.132 0 0.262-0.026 0.383-0.076s0.232-0.124 0.325-0.217l14-14z"></path>
</svg>
